<svg xmlns="http://www.w3.org/2000/svg" viewBox="0 0 343.95 147.78"><defs><style>.cls-1{fill:#deff00;stroke:#000;stroke-miterlimit:10;stroke-width:3px;}</style></defs><g id="Layer_2" data-name="Layer 2"><g id="Layer_1-2" data-name="Layer 1"><path d="M81.89,101.08c-12.16,0-16.66-3.92-16.66-12.63V82.8c0-8.71,4.88-12.25,16.47-12.25H99.5c5.07,0,7.37,1,9.28,2v-6c0-4.89-2.68-5.94-9.66-5.94H69.25l1.25-11.2h30.24c16.85,0,20.58,7.37,20.58,16.28v35.41c-3.63,0-7.75-2-8.71-8.13-1.53,4.69-5.84,8.13-13.4,8.13Zm26.89-21.15c-2.2-.86-4.69-1.44-9.38-1.44H83.8c-4,0-5.74,1.34-5.74,5.74S79.78,90,83.71,90h15.6c4.59,0,8.71-1.25,9.47-5.55Z"/><path d="M131.33,101.08v-95L144.06,0V101.08Z"/><path d="M339,3.1l-5.32,1.78a3.76,3.76,0,0,0-2.56,3.56V47.53a3.78,3.78,0,0,1-5.56,3.29,14.71,14.71,0,0,0-6.79-1.34H308.63c-15,0-19.9,6.7-19.9,20.68V80.5c0,14,4.88,20.67,19.9,20.67h11.2c5.78,0,9.77-1.1,12.35-3.36a3.66,3.66,0,0,1,5.19.55l.09.1A3.75,3.75,0,0,0,344,95.89V6.66A3.75,3.75,0,0,0,339,3.1Zm-7.88,80.23a3.3,3.3,0,0,1-.09.83,7.13,7.13,0,0,1-7.38,5.91h-15c-5.26,0-7.17-2-7.17-10V70.54c0-6.89,1.34-10,7.17-10h15c4.19,0,6.39,1.3,7.34,4.48a3.76,3.76,0,0,1,.13,1Z"/><path d="M35.32,49.51H24.12c-5.77,0-9.77,1.1-12.35,3.36a3.66,3.66,0,0,1-5.19-.55l-.08-.09A3.75,3.75,0,0,0,0,54.79V144a3.75,3.75,0,0,0,5,3.56l5.32-1.78a3.76,3.76,0,0,0,2.56-3.56V103.15a3.77,3.77,0,0,1,5.55-3.29,14.71,14.71,0,0,0,6.79,1.34H35.32c15,0,19.91-6.7,19.91-20.68V70.18C55.23,56.21,50.35,49.51,35.32,49.51ZM42.5,80.14c0,6.89-1.34,10-7.18,10h-15c-4.19,0-6.39-1.3-7.33-4.48a3.35,3.35,0,0,1-.13-1V67.35a3.83,3.83,0,0,1,.08-.83,7.14,7.14,0,0,1,7.38-5.91h15c5.26,0,7.18,2,7.18,10Z"/><path d="M241.68,101.2c-13.88,0-19.81-5.36-19.81-18.19V67.7c0-12.83,5.93-18.19,19.81-18.19h17.13c14,0,19.91,5.36,19.91,18.19V83c0,12.83-5.93,18.19-19.91,18.19ZM265.9,67.7c0-5.27-2.2-7.09-7.09-7.09H241.68c-4.79,0-7.08,1.82-7.08,7.09V83c0,5.27,2.29,7.08,7.08,7.08h17.13c4.89,0,7.09-1.81,7.09-7.08Z"/><path d="M163,42.58h37.12A16.52,16.52,0,0,1,216.66,59.1V83.73a16.52,16.52,0,0,1-16.52,16.52H160.07a16.52,16.52,0,0,1-16.52-16.52V62.06A19.47,19.47,0,0,1,163,42.58Z" transform="matrix(0.18, -0.98, 0.98, 0.18, 77.83, 235.97)"/><path d="M139.52,103h60.61a4.38,4.38,0,0,1,4.38,4.38v7.91a4.38,4.38,0,0,1-4.38,4.38H146.47a10.59,10.59,0,0,1-10.59-10.59v-2.45A3.64,3.64,0,0,1,139.52,103Z" transform="translate(30.35 259.09) rotate(-79.77)"/><path class="cls-1" d="M213.94,56.2l-7.19,39A15.22,15.22,0,0,1,189,107.43l-4.54-.84-3.11-.57-1.08,5.92-5,27.4a3.74,3.74,0,0,1-3.16,3l-5.55.81a3.75,3.75,0,0,1-4.23-4.38l5-27.33v-.07l1.41-7.7-.16,0a15.25,15.25,0,0,1-12.49-15.18l11.07,2h0a4.82,4.82,0,0,0,4.18-1.24,4.89,4.89,0,0,0,1.42-2.63,1.84,1.84,0,0,0-.62-1.74h0a1.79,1.79,0,0,0-.83-.4L157.08,81.9l1.29-7,15.1,2.79,7.08,1.3.74.14a5,5,0,0,0,3.61-.78,4.76,4.76,0,0,0,2-3.1,1.82,1.82,0,0,0-1.47-2.13l-2.28-.42L180,72.15l-5.35-1-15.09-2.77,3.94-21.46a15.25,15.25,0,0,1,17.76-12.24l.44.08,20,3.68a15.25,15.25,0,0,1,12.43,13.71A15.76,15.76,0,0,1,213.94,56.2Z"/></g></g></svg>